<?xml version="1.0" standalone="no"?>
<!DOCTYPE svg PUBLIC "-//W3C//DTD SVG 20010904//EN"
 "http://www.w3.org/TR/2001/REC-SVG-20010904/DTD/svg10.dtd">
<svg version="1.0" xmlns="http://www.w3.org/2000/svg"
 width="2000.000000pt" height="2000.000000pt" viewBox="0 0 2000.000000 2000.000000"
 preserveAspectRatio="xMidYMid meet">

<g transform="translate(0.000000,2000.000000) scale(0.100000,-0.100000)"
fill="#000000" stroke="none">
<path d="M9341 15990 c-24 -11 -78 -54 -120 -95 l-77 -75 -61 0 c-34 0 -117
11 -185 24 -233 46 -358 59 -439 48 -184 -27 -217 -34 -267 -57 -109 -50 -283
-215 -341 -324 -91 -171 -146 -604 -106 -836 25 -147 78 -348 121 -456 98
-251 326 -656 481 -857 45 -59 151 -197 234 -307 168 -221 217 -281 329 -401
160 -174 269 -423 288 -659 27 -338 -75 -548 -373 -770 -143 -106 -252 -250
-295 -390 -44 -141 -51 -155 -89 -179 -92 -58 -149 -156 -194 -333 -36 -140
-134 -341 -187 -383 l-38 -30 -36 42 c-20 23 -39 53 -43 66 -22 90 44 399 120
562 24 52 59 136 77 185 18 50 49 128 67 175 133 331 178 523 190 800 9 239
-29 393 -141 558 -103 153 -206 243 -349 304 -62 27 -85 31 -163 32 -85 1 -93
-1 -128 -28 -55 -41 -80 -103 -80 -196 -1 -72 2 -80 60 -200 34 -69 80 -150
103 -180 23 -30 46 -72 52 -95 27 -98 1 -602 -37 -734 -22 -76 -79 -217 -169
-416 -154 -341 -201 -478 -240 -709 -30 -175 -29 -227 6 -344 51 -166 194
-354 346 -454 105 -69 195 -100 314 -108 94 -6 116 -12 195 -48 252 -114 437
-121 677 -25 128 52 216 114 352 249 l120 119 87 23 c48 13 129 44 180 69 76
37 106 59 165 120 120 124 166 206 198 354 32 149 38 205 32 322 -5 91 1 190
23 424 60 624 61 890 4 1203 -105 574 -319 1053 -652 1464 -53 65 -132 164
-176 220 -43 56 -110 138 -148 183 -155 184 -319 511 -437 875 -50 155 -56
260 -20 333 65 129 153 196 292 220 104 18 324 80 394 110 132 59 263 184 303
292 28 76 27 175 -3 227 -51 91 -135 124 -216 86z"/>
<path d="M12708 15515 c-110 -29 -166 -61 -249 -145 -71 -72 -127 -169 -136
-237 -8 -64 24 -186 63 -237 69 -91 108 -104 228 -74 99 24 109 22 138 -33 17
-33 17 -36 -3 -99 -11 -36 -23 -106 -26 -156 l-6 -90 61 -135 c78 -174 82
-196 43 -274 -30 -59 -35 -63 -229 -192 -262 -174 -260 -172 -344 -468 -16
-57 -19 -91 -15 -185 4 -102 9 -129 46 -239 43 -129 105 -261 148 -320 56 -74
106 -277 107 -435 l1 -99 -55 -46 c-99 -84 -176 -165 -198 -212 -21 -43 -35
-102 -47 -200 l-6 -46 -58 -16 c-108 -30 -255 -112 -324 -181 -101 -101 -143
-194 -186 -418 -24 -121 -87 -309 -136 -408 -63 -125 -247 -349 -277 -337 -34
13 -48 166 -27 311 7 57 22 100 59 174 90 179 145 383 171 631 15 147 6 529
-16 671 -45 289 -171 638 -290 805 -84 118 -290 315 -439 420 -77 54 -171 131
-210 170 -87 88 -188 254 -246 402 -54 136 -59 183 -30 251 24 56 55 84 118
106 l40 14 60 -54 c36 -32 94 -104 143 -177 45 -67 102 -145 126 -174 48 -57
128 -103 179 -103 42 0 124 35 147 63 25 31 66 112 89 177 29 78 35 284 14
459 -16 144 -39 207 -107 307 -19 27 -60 100 -93 161 -52 100 -69 123 -152
202 -156 149 -270 201 -527 238 -115 16 -119 16 -255 -6 -229 -38 -332 -84
-453 -201 -75 -74 -128 -172 -176 -325 -27 -88 -27 -95 -27 -330 0 -210 3
-252 22 -339 99 -444 362 -856 752 -1177 121 -100 291 -278 344 -362 20 -32
57 -103 82 -158 l46 -100 -4 -212 -4 -212 -62 -158 c-82 -209 -106 -306 -146
-593 -13 -95 -16 -103 -70 -181 -76 -110 -150 -268 -178 -378 -30 -119 -33
-392 -5 -494 15 -52 17 -84 11 -180 -10 -182 27 -292 136 -401 57 -57 67 -63
215 -129 112 -50 158 -60 262 -61 173 0 270 33 674 236 l306 152 76 -10 c199
-28 399 51 572 226 132 133 203 327 235 636 11 104 22 130 56 130 20 0 65 -60
97 -128 26 -56 30 -77 38 -215 5 -83 16 -174 24 -202 18 -63 115 -228 162
-277 65 -67 290 -126 428 -113 74 8 205 45 266 76 79 40 128 131 115 213 -16
98 -96 201 -340 437 -82 79 -168 171 -191 204 -53 76 -120 223 -135 299 -15
75 0 299 35 506 35 206 39 313 24 675 -13 337 -7 510 27 717 17 108 76 364 98
424 42 118 84 413 93 639 5 154 4 166 -28 320 -25 118 -34 185 -34 255 1 106
10 130 85 230 22 30 53 79 68 110 25 50 27 65 27 170 0 112 -1 117 -35 182
-37 72 -107 165 -177 234 -52 53 -156 103 -236 115 -113 16 -274 9 -369 -16z"/>
<path d="M15410 14917 c-73 -26 -168 -83 -219 -131 -48 -44 -71 -100 -71 -171
0 -77 25 -131 88 -194 58 -58 122 -92 212 -115 161 -40 239 -112 289 -268 16
-51 44 -165 62 -253 37 -187 41 -323 15 -540 -9 -71 -16 -155 -16 -186 0 -31
-18 -146 -40 -256 -62 -311 -74 -427 -74 -753 0 -224 3 -310 17 -405 20 -133
87 -435 112 -505 55 -155 187 -289 356 -361 86 -37 212 -49 314 -30 211 39
509 162 585 241 14 14 77 62 140 106 135 93 319 271 427 414 135 179 204 313
248 487 16 63 17 80 6 143 -10 56 -21 81 -52 120 -43 55 -65 64 -154 65 -58 0
-67 -4 -185 -74 -69 -41 -143 -89 -165 -107 -22 -17 -98 -69 -170 -114 -71
-45 -208 -140 -304 -212 -150 -112 -177 -129 -195 -120 -34 15 -103 201 -127
341 -31 180 -34 352 -13 606 16 182 19 302 17 699 -3 633 -15 759 -93 953 -42
106 -159 297 -227 372 -70 78 -183 170 -249 201 -57 28 -219 57 -364 65 -94 5
-112 3 -170 -18z"/>
<path d="M3815 14844 c-242 -54 -433 -199 -561 -425 -122 -216 -170 -392 -181
-654 -12 -298 57 -599 209 -915 66 -139 98 -240 98 -313 0 -36 -54 -137 -73
-137 -6 0 -32 16 -56 35 -61 48 -134 69 -196 55 -133 -30 -199 -89 -250 -224
-36 -95 -43 -160 -34 -304 6 -99 14 -148 38 -223 32 -99 40 -185 21 -234 -16
-42 -36 -41 -84 3 -60 56 -102 75 -161 75 -213 0 -327 -339 -198 -586 64 -121
163 -206 295 -253 22 -7 96 -21 166 -29 202 -25 320 2 550 128 196 108 205
111 297 106 44 -2 166 -4 270 -3 l190 0 100 37 c55 20 134 43 175 52 262 53
542 303 724 646 78 147 163 360 281 711 131 386 204 573 317 808 l79 165 142
140 c220 217 453 393 662 501 72 37 91 42 176 49 113 8 172 32 246 99 65 59
88 115 87 211 0 82 -14 112 -76 172 -52 51 -112 79 -204 94 -99 17 -307 -9
-458 -57 -177 -57 -474 -184 -546 -233 -329 -224 -465 -375 -665 -741 -38 -69
-83 -150 -101 -180 -18 -30 -96 -188 -174 -350 -138 -288 -174 -349 -270 -453
-37 -40 -60 -54 -131 -81 -171 -64 -303 -168 -429 -336 -81 -108 -274 -334
-327 -381 -52 -47 -129 -92 -143 -84 -15 9 -12 38 11 102 18 47 44 79 153 192
259 268 290 310 340 469 43 136 32 248 -34 350 -50 77 -114 112 -208 112 -101
0 -115 14 -151 161 -41 170 -54 292 -47 459 9 229 39 357 123 523 51 98 94
140 163 161 41 12 49 11 82 -6 34 -18 43 -19 90 -8 69 16 97 31 136 71 51 52
75 129 69 221 -13 199 -138 308 -362 314 -64 2 -125 -2 -170 -12z"/>
<path d="M14151 13804 c-82 -41 -94 -67 -86 -192 3 -57 13 -121 22 -143 14
-37 14 -42 0 -56 -14 -14 -22 -14 -89 3 -107 26 -205 23 -273 -10 -154 -76
-260 -327 -284 -671 -8 -115 1 -508 14 -665 20 -236 118 -759 182 -970 37
-124 162 -438 217 -548 91 -182 256 -372 393 -455 81 -49 255 -114 329 -122
163 -19 412 66 550 187 57 50 58 50 108 43 29 -3 94 -27 151 -55 253 -123 512
-153 663 -76 88 45 143 130 144 221 1 84 -34 146 -153 271 -90 94 -119 134
-210 289 -267 450 -290 525 -384 1210 -85 626 -131 824 -240 1050 -63 131
-274 414 -379 508 -144 130 -344 207 -539 207 -70 0 -92 -4 -136 -26z m187
-1760 c18 -15 68 -40 110 -56 107 -41 175 -31 255 39 20 18 47 33 60 33 22 0
77 -46 77 -65 0 -5 14 -37 31 -72 41 -85 56 -191 63 -458 6 -239 21 -355 61
-461 25 -66 25 -67 7 -98 -23 -39 -73 -73 -120 -82 -47 -9 -140 10 -217 45
-51 23 -69 39 -112 97 -134 180 -264 426 -328 617 -42 124 -57 274 -36 349 15
53 75 138 98 138 9 0 32 -12 51 -26z"/>
<path d="M6890 13231 c-134 -12 -207 -38 -350 -127 -127 -78 -187 -148 -266
-311 -82 -168 -94 -203 -94 -271 0 -194 211 -296 445 -214 164 58 308 172 410
327 123 186 166 404 103 516 -45 81 -84 94 -248 80z"/>
<path d="M6620 11991 c-216 -77 -511 -248 -691 -402 -47 -41 -131 -111 -185
-156 -126 -104 -303 -285 -381 -389 -81 -110 -128 -197 -169 -312 -41 -117
-50 -177 -34 -226 13 -40 59 -116 71 -116 3 0 31 -23 60 -51 62 -60 194 -126
319 -163 47 -13 113 -33 147 -45 119 -40 243 -54 473 -54 313 1 509 36 653
116 58 33 67 42 81 84 9 25 16 59 16 75 0 64 -74 159 -154 197 -22 11 -104 36
-181 56 -177 46 -355 60 -655 51 -180 -6 -219 -4 -235 8 -20 14 -19 15 10 58
18 25 54 56 85 75 119 68 233 148 312 216 46 40 117 100 158 133 191 156 383
399 501 635 61 121 66 174 20 220 -40 40 -87 37 -221 -10z"/>
<path d="M17643 10871 c-76 -19 -147 -78 -186 -156 -18 -37 -67 -269 -68 -327
0 -24 -6 -59 -13 -78 -16 -43 -42 -43 -101 -1 -82 58 -104 65 -205 66 -83 0
-102 -3 -152 -27 -32 -15 -73 -39 -93 -55 -49 -38 -142 -159 -262 -338 -56
-83 -110 -158 -121 -168 -11 -10 -66 -37 -123 -61 -148 -61 -229 -104 -349
-184 -151 -100 -247 -188 -380 -347 -210 -252 -245 -310 -345 -563 -95 -245
-118 -351 -135 -638 -15 -268 18 -402 146 -587 85 -122 109 -144 219 -199 142
-71 203 -115 237 -167 29 -45 30 -49 25 -141 -7 -113 -40 -221 -96 -308 -86
-132 -426 -494 -561 -596 -104 -79 -340 -227 -463 -290 -118 -60 -276 -118
-582 -211 -137 -42 -283 -97 -337 -128 -84 -46 -169 -221 -153 -310 15 -79 83
-143 183 -173 130 -38 540 -8 817 60 332 82 596 203 905 415 349 239 622 550
795 905 202 414 284 778 227 1004 -35 136 -70 196 -179 309 -90 93 -107 104
-208 153 -175 85 -231 142 -294 301 l-30 75 18 90 c47 228 113 358 244 478
136 125 231 192 362 256 158 77 200 87 390 95 166 7 347 32 424 60 25 8 73 22
108 30 181 42 424 233 558 439 69 106 113 210 159 378 32 116 35 142 41 315 8
214 -3 293 -55 400 -37 75 -133 177 -192 202 -52 23 -131 33 -175 22z"/>
<path d="M3357 10491 c-124 -45 -192 -125 -219 -256 -8 -39 -7 -65 2 -101 20
-77 16 -122 -19 -196 -18 -38 -38 -68 -44 -68 -6 0 -46 18 -88 40 -124 64
-247 108 -344 121 -50 7 -101 20 -115 29 -78 54 -156 83 -231 88 -45 3 -91 0
-112 -7 -53 -18 -115 -66 -146 -116 -102 -161 -36 -383 203 -684 128 -161 216
-396 216 -576 0 -218 98 -520 237 -727 63 -94 168 -200 268 -270 116 -82 210
-171 229 -218 9 -22 36 -120 61 -218 98 -393 164 -515 394 -737 309 -297 398
-390 438 -460 85 -146 107 -277 80 -468 -10 -67 -26 -138 -36 -157 -10 -19
-34 -66 -54 -105 -52 -100 -67 -169 -67 -305 0 -142 9 -176 72 -267 101 -146
200 -206 401 -244 107 -19 332 52 394 125 33 39 62 103 63 137 0 44 29 125 54
152 46 49 89 35 223 -74 100 -83 248 -152 333 -157 58 -3 74 0 144 32 74 35
81 36 132 27 29 -6 66 -17 81 -25 49 -25 205 -58 278 -58 146 -1 245 79 282
227 15 60 15 72 0 148 -19 94 -71 208 -119 258 -31 31 -36 46 -61 174 -40 205
-49 309 -41 495 7 184 0 238 -48 390 -64 200 -162 374 -302 533 -93 105 -173
170 -241 196 -27 10 -58 29 -68 42 -16 23 -16 28 -1 79 9 30 40 96 69 145 108
184 137 261 171 440 12 70 15 129 11 265 -6 263 -34 383 -164 710 -156 393
-278 573 -453 664 -41 22 -122 71 -180 109 -58 38 -126 80 -153 93 -26 14 -60
42 -77 65 -41 58 -110 185 -110 204 0 9 -28 45 -62 79 -75 75 -195 144 -423
244 -216 95 -334 137 -502 178 -178 43 -247 44 -356 5z m667 -1212 c320 -63
494 -131 662 -258 87 -65 253 -295 403 -555 l86 -150 3 -97 c4 -95 3 -99 -37
-190 -42 -93 -99 -177 -263 -382 -88 -110 -91 -113 -172 -148 -46 -19 -97 -45
-113 -57 -55 -39 -79 -27 -176 91 -21 26 -58 58 -81 72 -68 40 -207 84 -318
100 -112 17 -147 34 -159 79 -21 78 -123 243 -220 357 -63 73 -68 95 -35 161
24 47 26 63 26 167 0 78 -7 147 -20 209 -11 50 -28 131 -39 180 -10 48 -27
106 -36 130 -26 63 -15 100 50 167 30 30 73 83 96 116 l41 61 52 -6 c28 -4
140 -25 250 -47z m861 -2388 c84 -38 187 -145 237 -246 14 -27 49 -113 78
-190 110 -296 212 -467 352 -589 83 -72 118 -117 118 -149 0 -8 9 -22 21 -33
54 -48 95 -186 70 -232 -17 -31 -53 -28 -119 11 -157 91 -224 109 -407 112
-149 3 -282 29 -354 72 -60 35 -170 149 -226 233 -63 95 -95 168 -110 258 -8
42 -21 109 -31 147 -18 77 -15 267 6 337 14 48 96 171 158 237 47 50 49 51
108 51 36 0 75 -8 99 -19z"/>
<path d="M14751 9480 c-372 -52 -874 -288 -1321 -621 -303 -225 -441 -358
-643 -614 -272 -346 -420 -634 -488 -955 -18 -84 -23 -137 -23 -265 0 -146 2
-167 27 -240 46 -138 127 -239 237 -293 53 -26 60 -27 210 -25 240 2 393 40
666 166 156 71 216 90 292 91 74 1 92 -14 92 -74 0 -99 -219 -383 -448 -580
-105 -91 -134 -110 -284 -185 -109 -54 -219 -100 -314 -130 -471 -152 -776
-444 -920 -881 -93 -286 -83 -640 25 -879 48 -106 99 -173 180 -237 121 -96
160 -113 261 -113 74 0 93 4 150 31 85 40 125 76 155 135 49 96 28 207 -59
314 -41 50 -130 184 -139 208 -4 10 -11 46 -17 80 -10 67 5 152 49 281 38 109
189 281 396 452 108 88 140 105 389 205 396 159 646 345 848 630 104 146 261
454 314 617 63 193 74 244 74 352 0 112 -17 188 -65 286 -31 63 -43 77 -97
112 -90 58 -184 77 -368 76 -190 -1 -269 -17 -564 -115 -266 -88 -322 -97
-396 -59 -70 36 -71 64 -10 230 86 234 213 426 414 625 221 221 489 365 738
400 57 7 233 92 349 167 78 51 269 234 269 258 0 21 137 111 230 151 153 65
210 123 210 213 0 62 -45 111 -140 155 -79 37 -167 46 -279 31z"/>
<path d="M12140 9124 c-272 -133 -420 -257 -552 -465 -26 -40 -58 -144 -58
-185 0 -51 -27 -102 -69 -129 -61 -40 -265 -102 -394 -120 -143 -20 -305 -8
-429 31 -102 32 -554 218 -716 293 -273 128 -476 192 -762 241 -105 19 -148
21 -275 16 -164 -6 -232 -18 -375 -66 -119 -41 -195 -47 -291 -26 -43 9 -131
17 -209 18 -129 3 -137 2 -191 -24 -76 -38 -179 -139 -213 -210 -37 -75 -45
-165 -21 -228 9 -25 24 -65 32 -90 33 -100 69 -171 144 -285 75 -115 79 -124
89 -200 5 -44 12 -92 16 -107 3 -15 -5 -78 -18 -140 -20 -100 -23 -139 -22
-343 2 -402 56 -647 214 -970 86 -174 175 -311 339 -515 121 -151 129 -164
145 -232 10 -40 47 -194 82 -343 68 -287 101 -403 141 -500 31 -74 122 -232
174 -302 43 -57 50 -102 24 -140 -26 -37 -65 -165 -65 -213 0 -61 25 -98 96
-140 54 -33 64 -35 144 -35 66 0 96 5 132 22 59 27 124 95 163 169 33 63 88
106 159 125 49 13 70 8 148 -38 89 -51 141 -95 177 -149 34 -52 39 -88 15
-122 -29 -41 -64 -164 -64 -223 0 -48 5 -64 33 -105 46 -67 112 -107 186 -112
85 -6 152 18 246 87 99 74 204 130 317 170 116 40 161 64 215 114 52 48 70 80
108 195 20 62 26 94 21 124 -14 88 -66 151 -162 195 -72 33 -130 38 -196 19
-74 -21 -210 -141 -263 -231 -42 -72 -49 -79 -88 -94 -44 -17 -50 15 -31 175
16 126 15 140 0 197 -23 82 -69 145 -137 182 -51 28 -60 30 -159 29 -138 -2
-204 -16 -325 -71 -144 -66 -245 -71 -245 -13 0 10 17 67 37 127 36 102 38
115 38 228 0 135 -16 192 -81 299 -48 77 -48 111 -1 210 55 116 133 213 199
247 50 25 213 69 259 69 56 0 226 -47 304 -84 71 -33 198 -129 289 -218 122
-120 352 -172 515 -117 97 33 252 164 299 254 22 41 27 63 27 126 0 65 -4 84
-30 135 -26 50 -46 70 -137 139 -58 44 -166 139 -240 210 -100 98 -150 139
-203 167 -202 105 -459 136 -735 89 -211 -36 -303 -68 -416 -143 -55 -37 -123
-87 -152 -112 -58 -50 -65 -52 -142 -35 -66 14 -91 38 -133 124 -34 69 -35 72
-40 240 -7 193 -21 285 -77 501 -77 298 -174 563 -296 812 -92 186 -109 260
-74 317 27 44 47 55 102 55 64 0 245 -44 332 -80 115 -48 515 -249 656 -330
250 -144 391 -207 683 -305 147 -49 438 -62 578 -26 106 27 154 52 232 121 91
80 114 78 131 -9 3 -19 13 -46 22 -59 15 -23 21 -24 83 -19 89 6 156 34 308
125 267 160 486 348 662 567 230 286 301 464 228 574 -41 62 -59 67 -184 53
-58 -6 -111 -8 -119 -4 -10 6 -2 23 33 72 66 94 132 236 145 311 10 57 9 69
-10 111 -26 61 -69 88 -137 88 -41 0 -74 -12 -185 -66z"/>
<path d="M6491 9095 c-83 -31 -105 -48 -169 -131 -74 -97 -100 -156 -134 -302
-45 -196 -49 -379 -13 -627 38 -274 105 -524 185 -689 54 -114 109 -195 200
-297 66 -74 82 -98 99 -154 12 -37 21 -77 21 -89 0 -12 -18 -110 -39 -217 -56
-279 -64 -360 -65 -669 -1 -300 12 -434 60 -623 48 -191 136 -376 251 -528 84
-113 137 -162 288 -271 169 -123 243 -155 417 -183 129 -20 183 -19 260 5 86
27 166 80 269 181 176 171 211 334 113 528 -35 71 -50 91 -82 109 -84 47 -182
21 -272 -73 -70 -72 -92 -83 -179 -91 -67 -7 -72 -6 -123 27 -85 55 -180 137
-216 187 -52 73 -122 226 -138 303 -8 39 -13 73 -10 77 2 4 -2 39 -10 77 -7
39 -19 177 -25 307 -14 266 -12 293 46 603 43 227 51 432 22 543 -35 131 -78
204 -189 320 -119 123 -162 196 -227 384 -46 136 -61 227 -61 381 0 94 5 132
32 232 28 106 31 136 32 260 1 151 -16 231 -70 336 -30 56 -47 73 -97 94 -50
21 -101 18 -176 -10z"/>
<path d="M16261 5780 c-81 -22 -184 -74 -246 -125 -22 -18 -90 -82 -151 -142
-155 -152 -208 -255 -208 -403 0 -90 16 -131 75 -195 60 -65 89 -77 195 -83
76 -4 102 -1 160 18 172 57 297 143 390 269 120 162 144 227 144 390 0 84 -4
113 -20 146 -38 78 -148 146 -234 144 -17 0 -64 -9 -105 -19z"/>
</g>
</svg>
